# xmcd
#
# Track frame offsets:
#        150
#        39725
#        52475
#        63725
#        77875
#        94825
#        114547
#
# Disc length: 1800 seconds
#
# Revision: 0
# Processed by: cddbd v1.5PL3 Copyright (c) Steve Scherf et al.
# Submitted via: ExactAudioCopy v0.95a4
#
DISCID=67070607
DTITLE=ERIC CLAPTON - in the blues with EC
DYEAR=1900
DGENRE=Blues
TTITLE0=Gambling Woman Blues - Freddie King
TTITLE1=Pretty Girls Everywhere - Otis Spann
TTITLE2=Stirs Me Up - Otis Spann
TTITLE3=Here In The Dark - Taj Mahal
TTITLE4=(You've Got To)Love Her With A Feeling - Taj Mahal
TTITLE5=Oh Lord, Why Lord - Jim Capaldi
TTITLE6=Wonderful World - Zucchero
EXTD=
EXTT0=
EXTT1=
EXTT2=
EXTT3=
EXTT4=
EXTT5=
EXTT6=
PLAYORDER=
